<svg width="44" height="35" viewBox="0 0 44 35" fill="none" xmlns="http://www.w3.org/2000/svg">
<path fill-rule="evenodd" clip-rule="evenodd" d="M21.6106 9.77051C16.1855 9.77051 11.7876 14.1684 11.7876 19.5935C11.7876 25.0186 16.1855 29.4165 21.6106 29.4165C27.0357 29.4165 31.4336 25.0186 31.4336 19.5935C31.4336 14.1684 27.0357 9.77051 21.6106 9.77051ZM21.6106 26.4697C17.813 26.4697 14.7345 23.3912 14.7345 19.5936C14.7345 15.796 17.813 12.7175 21.6106 12.7175C25.4081 12.7175 28.4867 15.796 28.4867 19.5936C28.4867 23.3912 25.4081 26.4697 21.6106 26.4697Z" fill="#0089E9"/>
<path fill-rule="evenodd" clip-rule="evenodd" d="M40.2743 6.82349H33.0151L29.9602 2.24597C29.4138 1.4235 28.4918 0.929319 27.5044 0.929688H15.7168C14.7294 0.929319 13.8074 1.4235 13.2611 2.24597L10.2061 6.82349H9.82301V5.84119C9.82301 4.21366 8.50364 2.89429 6.87611 2.89429H5.89381C4.26628 2.89429 2.9469 4.21366 2.9469 5.84119V6.82349C1.31937 6.82349 0 8.14287 0 9.7704V31.381C0 33.0085 1.31937 34.3279 2.9469 34.3279H40.2743C41.9019 34.3279 43.2212 33.0085 43.2212 31.381V9.7704C43.2212 8.14287 41.9019 6.82349 40.2743 6.82349ZM5.89376 5.84139H6.87606V6.8237H5.89376V5.84139ZM40.2743 31.3812H2.94686V9.7706H11.7876L15.7168 3.87679H27.5044L31.4336 9.7706H40.2743V31.3812Z" fill="#0089E9"/>
<path fill-rule="evenodd" clip-rule="evenodd" d="M34.8719 15.6642C35.6857 15.6642 36.3453 15.0045 36.3453 14.1907C36.3453 13.377 35.6857 12.7173 34.8719 12.7173C34.0581 12.7173 33.3984 13.377 33.3984 14.1907C33.3984 15.0045 34.0581 15.6642 34.8719 15.6642Z" fill="#0089E9"/>
</svg>
