<svg width="34" height="34" viewBox="0 0 34 34" fill="none" xmlns="http://www.w3.org/2000/svg">
<circle cx="17" cy="17" r="17" fill="#03AB00"/>
<path fill-rule="evenodd" clip-rule="evenodd" d="M22.3182 10.2273C23.6738 10.2273 24.7727 11.3262 24.7727 12.6818V19.2273C24.7727 20.5829 23.6738 21.6818 22.3182 21.6818H14.8523L12.0909 24.1364V21.6818H11.6818C10.3262 21.6818 9.22727 20.5829 9.22727 19.2273V12.6818C9.22727 11.3262 10.3262 10.2273 11.6818 10.2273H22.3182ZM22.3182 9H11.6818C9.64841 9 8 10.6484 8 12.6818V19.2273C7.99904 20.9462 9.18766 22.4371 10.8636 22.8191V24.1364C10.863 24.6206 11.1472 25.06 11.5891 25.258C12.0311 25.456 12.5481 25.3756 12.9091 25.0527L15.3227 22.9091H22.3182C24.3516 22.9091 26 21.2607 26 19.2273V12.6818C26 10.6484 24.3516 9 22.3182 9Z" fill="white"/>
<path fill-rule="evenodd" clip-rule="evenodd" d="M17.0004 16.5681C17.3393 16.5681 17.614 16.2934 17.614 15.9545C17.614 15.6156 17.3393 15.3408 17.0004 15.3408C16.6615 15.3408 16.3867 15.6156 16.3867 15.9545C16.3867 16.2934 16.6615 16.5681 17.0004 16.5681Z" fill="white"/>
<path fill-rule="evenodd" clip-rule="evenodd" d="M21.0907 16.5681C21.4296 16.5681 21.7043 16.2934 21.7043 15.9545C21.7043 15.6156 21.4296 15.3408 21.0907 15.3408C20.7518 15.3408 20.4771 15.6156 20.4771 15.9545C20.4771 16.2934 20.7518 16.5681 21.0907 16.5681Z" fill="white"/>
<path fill-rule="evenodd" clip-rule="evenodd" d="M12.9579 16.5681C13.2968 16.5681 13.5715 16.2934 13.5715 15.9545C13.5715 15.6156 13.2968 15.3408 12.9579 15.3408C12.619 15.3408 12.3442 15.6156 12.3442 15.9545C12.3442 16.2934 12.619 16.5681 12.9579 16.5681Z" fill="white"/>
</svg>
