<svg width="35" height="38" viewBox="0 0 35 38" fill="none" xmlns="http://www.w3.org/2000/svg">
<path fill-rule="evenodd" clip-rule="evenodd" d="M31.6667 0H10.8571C9.92079 0.0031919 9.0522 0.488782 8.55905 1.28476L1.32096 8.52286C0.500104 9.01385 -0.00172651 9.90065 4.46356e-06 10.8571V35.2857C4.46356e-06 36.7848 1.21523 38 2.71429 38H31.6667C33.1657 38 34.381 36.7848 34.381 35.2857V2.71429C34.381 1.21523 33.1657 0 31.6667 0ZM8.14289 5.53763V8.14334H5.53718L8.14289 5.53763ZM31.6666 35.2858H2.71417V10.9477H2.76846L2.82274 10.8935H10.857V2.85917L10.9113 2.80488V2.7506H31.6304L31.6666 35.2858Z" fill="#0089E9"/>
</svg>
