<svg width="32" height="32" viewBox="0 0 32 32" fill="none" xmlns="http://www.w3.org/2000/svg">
<path fill-rule="evenodd" clip-rule="evenodd" d="M20.4206 5.72559V7.71832C24.6529 9.69928 26.9029 14.229 25.8464 18.6414C24.7899 23.0537 20.7066 26.18 16 26.18C11.2934 26.18 7.21013 23.0537 6.1536 18.6414C5.09707 14.229 7.34713 9.69928 11.5794 7.71832V5.72559C6.22541 7.76679 3.13402 13.1796 4.21407 18.6217C5.29411 24.0638 10.2409 28.0002 16 28.0002C21.7591 28.0002 26.7059 24.0638 27.7859 18.6217C28.866 13.1796 25.7746 7.76679 20.4206 5.72559V5.72559Z" fill="#E90000"/>
<path fill-rule="evenodd" clip-rule="evenodd" d="M15.3687 5.1361V15.0086C15.3687 15.6162 15.6592 16.1508 16.3159 16.1508C16.9727 16.1508 17.2632 15.6405 17.2632 15.0147V5.1361C17.2632 4.52856 16.9727 4 16.3159 4C15.6592 4 15.3687 4.50426 15.3687 5.1361Z" fill="#E90000"/>
</svg>
