<svg width="32" height="32" viewBox="0 0 32 32" fill="none" xmlns="http://www.w3.org/2000/svg">
<path fill-rule="evenodd" clip-rule="evenodd" d="M10.0403 3.44948C10.0403 2.12699 10.9154 0.974609 12.3477 0.974609C13.7801 0.974609 14.6552 2.12699 14.6552 3.44948V3.73938H17.6914H21.0705C21.3467 3.73938 21.5705 3.96324 21.5705 4.23938V5.18732C21.5705 6.01958 22.2136 6.66219 23.0351 6.66219C23.8567 6.66219 24.4997 6.01958 24.4997 5.18732V4.23938C24.4997 3.96324 24.7236 3.73938 24.9997 3.73938H28.3788C28.6549 3.73938 28.8788 3.96324 28.8788 4.23938V14.6346C28.9285 14.7123 28.9573 14.8046 28.9573 14.9037C28.9573 15.0029 28.9285 15.0952 28.8788 15.1729V18.4585C28.8788 18.7346 28.6549 18.9585 28.3788 18.9585H27.5929C26.7145 18.9585 26.1284 19.497 26.1284 20.2753C26.1284 21.0537 26.7145 21.5922 27.5929 21.5922H28.3788C28.6549 21.5922 28.8788 21.8161 28.8788 22.0922V25.299C28.9285 25.3767 28.9573 25.469 28.9573 25.5681C28.9573 25.726 28.8842 25.8667 28.77 25.9583C28.6784 26.0733 28.5372 26.147 28.3788 26.147C28.2795 26.147 28.1869 26.118 28.1092 26.0681H25.4211V26.3581C25.4211 27.6806 24.546 28.833 23.1137 28.833C21.6814 28.833 20.8063 27.6806 20.8063 26.3581V26.0681H18.056C17.9648 26.1653 17.8352 26.226 17.6914 26.226C17.5476 26.226 17.418 26.1653 17.3268 26.0681H14.2338C13.9577 26.0681 13.7338 25.8443 13.7338 25.5681V24.7782C13.7338 23.8888 13.1944 23.3033 12.4264 23.3033C11.6584 23.3033 11.119 23.8888 11.119 24.7782V25.5681C11.119 25.8443 10.8951 26.0681 10.619 26.0681H7.35236C7.27456 26.1181 7.182 26.147 7.08268 26.147C6.80654 26.147 6.58268 25.9232 6.58268 25.647V11.928H6.29685C4.97495 11.928 3.83228 11.0446 3.83228 9.61108C3.83228 8.17758 4.97495 7.2942 6.29685 7.2942H6.58268V4.23943C6.58268 3.96329 6.80654 3.73943 7.08268 3.73943H10.0403V3.44948ZM7.58268 25.0681H10.119V24.7782C10.119 23.4557 10.9941 22.3033 12.4264 22.3033C13.8587 22.3033 14.7338 23.4557 14.7338 24.7782V25.0681H17.1914V22.1712C17.1914 21.8951 17.4153 21.6712 17.6914 21.6712H18.4772C19.3557 21.6712 19.9418 21.1327 19.9418 20.3543C19.9418 19.576 19.3557 19.0375 18.4772 19.0375H17.6914C17.4153 19.0375 17.1914 18.8136 17.1914 18.5375V15.4037H14.7338V15.6937C14.7338 17.0162 13.8587 18.1686 12.4264 18.1686C10.9941 18.1686 10.119 17.0162 10.119 15.6937V15.4037H7.58268V25.0681ZM18.1914 25.0681H21.3063C21.5824 25.0681 21.8063 25.292 21.8063 25.5681V26.3581C21.8063 27.2475 22.3457 27.833 23.1137 27.833C23.8817 27.833 24.4211 27.2475 24.4211 26.3581V25.5681C24.4211 25.292 24.645 25.0681 24.9211 25.0681H27.8788V22.5922H27.5929C26.271 22.5922 25.1284 21.7088 25.1284 20.2753C25.1284 18.8418 26.271 17.9585 27.5929 17.9585H27.8788V15.4037H25.4211V15.6937C25.4211 17.0162 24.546 18.1686 23.1137 18.1686C21.6814 18.1686 20.8063 17.0162 20.8063 15.6937V15.4037H18.1914V18.0375H18.4772C19.7991 18.0375 20.9418 18.9208 20.9418 20.3543C20.9418 21.7878 19.7991 22.6712 18.4772 22.6712H18.1914V25.0681ZM14.1552 4.73943L14.1619 4.73938H17.1914V7.29415H16.9056C15.5837 7.29415 14.441 8.17753 14.441 9.61103C14.441 11.0445 15.5837 11.9279 16.9056 11.9279H17.1914V14.4037H14.2338C13.9577 14.4037 13.7338 14.6276 13.7338 14.9037V15.6937C13.7338 16.5831 13.1944 17.1686 12.4264 17.1686C11.6584 17.1686 11.119 16.5831 11.119 15.6937V14.9037C11.119 14.6276 10.8951 14.4037 10.619 14.4037H7.58268V11.428C7.58268 11.1518 7.35883 10.928 7.08268 10.928H6.29685C5.41843 10.928 4.83228 10.3894 4.83228 9.61108C4.83228 8.83273 5.41843 8.2942 6.29685 8.2942H7.08268C7.35883 8.2942 7.58268 8.07034 7.58268 7.7942V4.73943H10.5403C10.8165 4.73943 11.0403 4.51557 11.0403 4.23943V3.44948C11.0403 2.56012 11.5798 1.97461 12.3477 1.97461C13.1157 1.97461 13.6552 2.56012 13.6552 3.44948V4.23943C13.6552 4.51557 13.879 4.73943 14.1552 4.73943ZM18.1914 14.4037H21.3063C21.5824 14.4037 21.8063 14.6276 21.8063 14.9037V15.6937C21.8063 16.5831 22.3457 17.1686 23.1137 17.1686C23.8817 17.1686 24.4211 16.5831 24.4211 15.6937V14.9037C24.4211 14.6276 24.645 14.4037 24.9211 14.4037H27.8788V4.73938H25.4997V5.18732C25.4997 6.56693 24.4139 7.66219 23.0351 7.66219C21.6564 7.66219 20.5705 6.56693 20.5705 5.18732V4.73938H18.1914V7.79415C18.1914 8.0703 17.9676 8.29415 17.6914 8.29415H16.9056C16.0272 8.29415 15.441 8.83268 15.441 9.61103C15.441 10.3894 16.0272 10.9279 16.9056 10.9279H17.6914C17.9676 10.9279 18.1914 11.1518 18.1914 11.4279V14.4037Z" fill="#0089E9"/>
</svg>
