<svg width="32" height="32" viewBox="0 0 32 32" fill="none" xmlns="http://www.w3.org/2000/svg">
<path d="M29.3332 7.1792H12.3333V8.10228H29.3332V7.1792Z" fill="#0089E9"/>
<path d="M29.3332 13.6409H12.3333V14.5639H29.3332V13.6409Z" fill="#0089E9"/>
<path d="M29.3332 20.1025H12.3333V21.0256H29.3332V20.1025Z" fill="#0089E9"/>
<path d="M29.3332 26.564H12.3333V27.487H29.3332V26.564Z" fill="#0089E9"/>
<path d="M10.3332 9.94864H5.33325V5.33325H10.3332V9.94864ZM6.33325 9.02556H9.33325V6.25633H6.33325V9.02556Z" fill="#0089E9"/>
<path d="M10.3332 16.4101H5.33325V11.7947H10.3332V16.4101ZM6.33325 15.487H9.33325V12.7178H6.33325V15.487Z" fill="#0089E9"/>
<path d="M10.3332 22.8717H5.33325V18.2563H10.3332V22.8717ZM6.33325 21.9487H9.33325V19.1794H6.33325V21.9487Z" fill="#0089E9"/>
<path d="M10.3332 29.3332H5.33325V24.7178H10.3332V29.3332ZM6.33325 28.4101H9.33325V25.6409H6.33325V28.4101Z" fill="#0089E9"/>
</svg>
