<svg width="172" height="85" viewBox="0 0 172 85" fill="none" xmlns="http://www.w3.org/2000/svg">
<path d="M171.677 25.8926V55.1912H166.008V36.819H165.822L162.888 55.1912H158.364L155.455 36.819H155.256V55.1912H149.6V25.8926H156.947L160.626 46.465L164.318 25.8926H171.664H171.677ZM65.0733 25.8926V29.5223H59.9395V55.1912H54.2837V25.8926H65.0609H65.0733ZM77.0438 25.8926L79.9898 55.1912H74.4583L73.9362 47.3973H71.2761L70.754 55.1912H65.2225L68.1685 25.8926H77.0563H77.0438ZM73.7249 44.1654L72.7553 29.5223H72.4321L71.4626 44.1654H73.7249ZM95.5155 44.0411V49.9331C95.5155 51.9966 95.2544 55.1788 91.3015 55.1788H86.6153C82.6624 55.1788 82.4138 51.9841 82.4138 49.9331V44.9236H88.0821V50.4303C88.0821 51.1762 88.629 51.375 88.9646 51.375C89.4743 51.375 89.8348 50.9275 89.8348 50.4303V43.606C89.8348 42.6986 89.6732 41.6917 87.5724 41.6917H85.2728V38.4847H87.6594C89.2754 38.4847 89.8348 38.0993 89.8348 36.3093V30.4795C89.8348 29.9698 89.4743 29.5348 88.9646 29.5348C88.6166 29.5348 88.0821 29.7336 88.0821 30.4795V35.2652H82.4138V31.1259C82.4138 29.0624 82.65 25.8926 86.6153 25.8926H91.3015C95.2544 25.8926 95.5155 29.0624 95.5155 31.1259V35.8121C95.5155 38.9819 93.3774 39.8769 91.662 39.7899V40.0758C95.4533 40.0012 95.5155 42.9969 95.5155 44.0535V44.0411ZM112.309 25.8926V55.1912H106.653V29.5223H104.876V55.1912H99.1949V25.8926H112.297H112.309ZM129.103 31.1259V39.9888C129.103 42.0522 128.854 45.222 124.901 45.222H121.669V55.1912H116.013V25.8926H124.901C128.854 25.8926 129.103 29.0624 129.103 31.1259ZM123.422 40.5357V30.9891C123.422 30.0817 122.999 29.5348 122.378 29.5348H121.669V41.9901H122.378C122.999 41.9901 123.422 41.468 123.422 40.5357ZM145.871 31.1259V49.9455C145.871 52.009 145.635 55.1912 141.67 55.1912H137.008C133.031 55.1912 132.807 51.9966 132.807 49.9455V31.1259C132.807 29.0624 133.031 25.8926 137.008 25.8926H141.67C145.623 25.8926 145.871 29.0624 145.871 31.1259ZM140.24 50.4428V30.4795C140.24 29.9698 139.88 29.5348 139.345 29.5348C139.022 29.5348 138.463 29.7336 138.463 30.4795V50.4428C138.463 51.1886 139.034 51.3875 139.345 51.3875C139.867 51.3875 140.24 50.94 140.24 50.4428Z" fill="white"/>
<path d="M50.654 55.3279V75.3533C45.2965 81.0465 37.714 84.6264 29.2737 84.6264C13.1017 84.6264 0 71.4999 0 55.3279C0 39.1808 13.1017 26.0542 29.2737 26.0542V26.7752V48.081C25.0722 48.081 20.8707 49.672 17.6388 52.8915C16.8681 53.6622 16.1969 54.4826 15.6251 55.3403C11.3241 61.742 11.9829 70.5055 17.6388 76.1613C20.8707 79.3684 25.0722 80.9843 29.2737 80.9843C33.4752 80.9843 37.6518 79.3932 40.8589 76.1986C40.8837 76.1738 40.8962 76.1738 40.8962 76.1613C40.921 76.1365 40.9334 76.1365 40.9583 76.124C44.1654 72.917 44.1654 67.6838 40.9583 64.4767C37.7264 61.2696 32.518 61.2696 29.311 64.4767C29.2861 64.5016 29.2861 64.5016 29.2737 64.514V55.3528H39.9141H42.9223H50.654V55.3279ZM46.8006 15.2646C48.5782 23.1206 48.5533 27.9436 47.7702 33.4627C46.378 43.3698 41.8533 50.9648 39.9141 53.5131C38.5592 51.7728 36.5206 48.2674 35.1533 44.9733C35.1533 44.9733 32.5678 38.7208 31.8965 32.6175C31.6728 30.7032 31.5485 28.764 31.5485 26.7876C31.5485 22.524 32.1078 18.1236 33.4876 13.3627C35.3025 7.09778 38.8949 1.45436 39.8644 0C40.4859 1.03173 44.9982 7.4334 46.7882 15.2894L46.8006 15.2646ZM46.2785 28.6149C46.3407 25.6067 46.0299 20.5227 44.588 15.2024C43.1088 9.89463 40.2871 4.82301 39.8644 4.17663C39.4418 4.82301 37.1795 8.93749 35.203 15.364C34.6809 17.2783 33.7238 21.4674 33.5622 25.5446C33.3633 30.467 34.047 35.377 34.308 36.7444C34.308 35.1284 34.3453 29.6715 35.3522 25.1716C36.359 20.6718 38.2858 15.4759 39.852 12.8406C41.5425 15.6251 43.6681 21.629 44.414 25.1965C45.1598 28.7889 45.5451 33.3882 45.3835 36.6449C45.8435 34.7679 46.1915 31.5982 46.2785 28.6149ZM39.8769 51.549C40.8091 49.8585 42.3629 46.1418 42.2386 41.4182C42.0398 36.5952 40.3989 33.065 39.9141 32.2321C39.3548 33.065 37.4654 37.1173 37.4902 41.8409C37.6269 46.726 39.0067 49.8958 39.8769 51.549Z" fill="white"/>
<path d="M172 64.3772V84.5518H111.551H84.5891H54.147V64.3772H90.1082H114.397H172ZM84.5891 80.6735H90.3693V78.4733H87.5227V75.1793H89.9466V73.0785H87.5227V70.3563H90.1082V68.1312H84.5891V80.6735ZM67.0249 80.6735V68.1312H64.0913V72.9791H62.5997V68.1312H59.6537V80.6735H62.5997V75.1793H64.0913V80.6735H67.0249ZM111.551 80.6735H114.397V79.4429C117.269 79.4429 118.574 78.7592 118.574 76.211V72.2954C118.574 69.7347 117.318 69.0884 114.397 69.0884V68.1437H111.551V69.0884C108.605 69.0884 107.349 69.7347 107.349 72.2954V76.211C107.349 78.7592 108.654 79.4429 111.551 79.4429V80.6735ZM166.27 77.4416V76.1489C166.27 73.6503 165.201 72.9791 162.317 72.9791H161.832V68.1312H158.923V80.6735H161.832C165.027 80.6735 166.27 80.1887 166.27 77.4416ZM142.105 70.3563V68.1312H135.218V70.3563H137.195V80.6735H140.116V70.3563H142.092H142.105Z" fill="white"/>
<path d="M162.553 75.2041H161.906V78.4858H162.553C163.212 78.4858 163.411 78.3242 163.411 77.6032V76.0991C163.411 75.3782 163.212 75.2166 162.553 75.2166V75.2041Z" fill="white"/>
<path d="M115.765 72.4322V76.4472C115.765 77.193 115.528 77.3795 114.87 77.3795H114.41V71.5496H114.87C115.516 71.5496 115.765 71.6863 115.765 72.4322Z" fill="white"/>
<path d="M111.588 71.5372V77.3671H111.128C110.457 77.3671 110.233 77.2055 110.233 76.4596V72.457C110.233 71.7112 110.457 71.5247 111.128 71.5247H111.588V71.5372Z" fill="white"/>
<path d="M115.765 72.4322V76.4472C115.765 77.193 115.528 77.3795 114.87 77.3795H114.41V71.5496H114.87C115.516 71.5496 115.765 71.6863 115.765 72.4322Z" fill="white"/>
<path d="M111.588 71.5372V77.3671H111.128C110.457 77.3671 110.233 77.2055 110.233 76.4596V72.457C110.233 71.7112 110.457 71.5247 111.128 71.5247H111.588V71.5372Z" fill="white"/>
</svg>
