<svg width="16" height="16" viewBox="0 0 16 16" fill="none" xmlns="http://www.w3.org/2000/svg">
<path fill-rule="evenodd" clip-rule="evenodd" d="M2 5.99946C2 5.78046 2.072 5.55946 2.219 5.37546C2.564 4.94346 3.193 4.87446 3.625 5.21946L8 8.71946L12.375 5.21946C12.807 4.87446 13.436 4.94346 13.781 5.37546C14.125 5.80646 14.056 6.43646 13.625 6.78046L8.625 10.7805C8.259 11.0735 7.741 11.0735 7.375 10.7805L2.375 6.78046C2.128 6.58346 2 6.29246 2 5.99946Z" fill="black"/>
<mask id="mask0" mask-type="alpha" maskUnits="userSpaceOnUse" x="2" y="5" width="12" height="7">
<path fill-rule="evenodd" clip-rule="evenodd" d="M2 5.99946C2 5.78046 2.072 5.55946 2.219 5.37546C2.564 4.94346 3.193 4.87446 3.625 5.21946L8 8.71946L12.375 5.21946C12.807 4.87446 13.436 4.94346 13.781 5.37546C14.125 5.80646 14.056 6.43646 13.625 6.78046L8.625 10.7805C8.259 11.0735 7.741 11.0735 7.375 10.7805L2.375 6.78046C2.128 6.58346 2 6.29246 2 5.99946Z" fill="white"/>
</mask>
<g mask="url(#mask0)">
<rect width="16" height="16" fill="#8D99AE"/>
</g>
</svg>
