<svg width="29" height="29" viewBox="0 0 29 29" fill="none" xmlns="http://www.w3.org/2000/svg">
<path opacity="0.54" fill-rule="evenodd" clip-rule="evenodd" d="M20.7283 18.238H19.4118L18.9542 17.7837C20.5707 15.8985 21.5539 13.4546 21.5539 10.777C21.5539 4.82478 16.7292 1.71661e-05 10.777 1.71661e-05C4.82476 1.71661e-05 0 4.82478 0 10.777C0 16.7292 4.82476 21.5539 10.777 21.5539C13.4546 21.5539 15.8969 20.5724 17.782 18.9575L18.2396 19.4118V20.7249L26.5263 29L28.9983 26.5279L20.7283 18.238ZM10.7774 18.2388C6.65542 18.2388 3.31603 14.8994 3.31603 10.7774C3.31603 6.65705 6.65542 3.316 10.7774 3.316C14.8978 3.316 18.2388 6.65705 18.2388 10.7774C18.2388 14.8994 14.8978 18.2388 10.7774 18.2388Z" fill="#A4A4A4"/>
</svg>
