<svg width="32" height="32" viewBox="0 0 32 32" fill="none" xmlns="http://www.w3.org/2000/svg">
<path fill-rule="evenodd" clip-rule="evenodd" d="M22.5001 7.5001C24.157 7.5001 25.5001 8.84325 25.5001 10.5001V18.5001C25.5001 20.157 24.157 21.5001 22.5001 21.5001H13.3751L10.0001 24.5001V21.5001H9.5001C7.84325 21.5001 6.5001 20.157 6.5001 18.5001V10.5001C6.5001 8.84325 7.84325 7.5001 9.5001 7.5001H22.5001ZM22.5 6H9.5C7.01472 6 5 8.01472 5 10.5V18.5C4.99883 20.6009 6.45158 22.4231 8.5 22.89V24.5C8.49922 25.0919 8.84658 25.6289 9.38673 25.8709C9.92689 26.1129 10.5588 26.0146 11 25.62L13.95 23H22.5C24.9853 23 27 20.9853 27 18.5V10.5C27 8.01472 24.9853 6 22.5 6Z" fill="#0089E9"/>
<path fill-rule="evenodd" clip-rule="evenodd" d="M16.0002 15.25C16.4145 15.25 16.7502 14.9142 16.7502 14.5C16.7502 14.0858 16.4145 13.75 16.0002 13.75C15.586 13.75 15.2502 14.0858 15.2502 14.5C15.2502 14.9142 15.586 15.25 16.0002 15.25Z" fill="#0089E9"/>
<path fill-rule="evenodd" clip-rule="evenodd" d="M21 15.25C21.4142 15.25 21.75 14.9142 21.75 14.5C21.75 14.0858 21.4142 13.75 21 13.75C20.5858 13.75 20.25 14.0858 20.25 14.5C20.25 14.9142 20.5858 15.25 21 15.25Z" fill="#0089E9"/>
<path fill-rule="evenodd" clip-rule="evenodd" d="M11.0598 15.25C11.474 15.25 11.8098 14.9142 11.8098 14.5C11.8098 14.0858 11.474 13.75 11.0598 13.75C10.6456 13.75 10.3098 14.0858 10.3098 14.5C10.3098 14.9142 10.6456 15.25 11.0598 15.25Z" fill="#0089E9"/>
</svg>
